<svg width="247" height="95" viewBox="0 0 247 95" fill="none" xmlns="http://www.w3.org/2000/svg">
<path d="M68.6276 45.7451C68.6276 40.7483 69.6092 36.3165 71.5722 32.4499C73.5948 28.5833 76.3014 25.609 79.6922 23.5269C83.1424 21.4449 86.9793 20.4039 91.2028 20.4039C94.891 20.4039 98.1032 21.1475 100.84 22.6346C103.635 24.1218 105.866 25.9956 107.532 28.2561V21.2069H120.113V70.6403H107.532V63.4126C105.926 65.7326 103.695 67.6659 100.84 69.2126C98.0438 70.6997 94.8017 71.4433 91.1136 71.4433C86.9495 71.4433 83.1424 70.3726 79.6922 68.2311C76.3014 66.0895 73.5948 63.0855 71.5722 59.2188C69.6092 55.2927 68.6276 50.8015 68.6276 45.7451ZM107.532 45.9236C107.532 42.8898 106.937 40.3021 105.747 38.1606C104.558 35.9596 102.951 34.294 100.929 33.1637C98.9063 31.974 96.7351 31.3791 94.4151 31.3791C92.0951 31.3791 89.9536 31.9443 87.9905 33.0745C86.0275 34.2048 84.4213 35.8704 83.1721 38.0714C81.9824 40.2129 81.3875 42.7708 81.3875 45.7451C81.3875 48.7195 81.9824 51.3369 83.1721 53.5974C84.4213 55.7984 86.0275 57.4937 87.9905 58.6835C90.0131 59.8732 92.1546 60.4681 94.4151 60.4681C96.7351 60.4681 98.9063 59.9029 100.929 58.7727C102.951 57.583 104.558 55.9173 105.747 53.7758C106.937 51.5748 107.532 48.9574 107.532 45.9236Z" fill="url(#paint0_linear_208_10335)"/>
<path d="M152.123 20.4039C155.811 20.4039 159.053 21.1475 161.849 22.6346C164.645 24.0623 166.846 25.9361 168.452 28.2561V21.2069H181.034V70.9972C181.034 75.5776 180.111 79.6525 178.267 83.2217C176.423 86.8503 173.657 89.7057 169.969 91.7877C166.281 93.9292 161.819 95 156.585 95C149.565 95 143.795 93.3641 139.274 90.0924C134.812 86.8206 132.284 82.3591 131.689 76.7079H144.092C144.747 78.9684 146.145 80.753 148.286 82.0617C150.487 83.4299 153.134 84.114 156.228 84.114C159.856 84.114 162.801 83.0135 165.061 80.8125C167.322 78.6709 168.452 75.3992 168.452 70.9972V63.3234C166.846 65.6434 164.615 67.5767 161.76 69.1234C158.964 70.67 155.752 71.4433 152.123 71.4433C147.959 71.4433 144.152 70.3726 140.702 68.2311C137.251 66.0895 134.515 63.0855 132.493 59.2188C130.529 55.2927 129.548 50.8015 129.548 45.7451C129.548 40.7483 130.529 36.3165 132.493 32.4499C134.515 28.5833 137.222 25.609 140.612 23.5269C144.063 21.4449 147.9 20.4039 152.123 20.4039ZM168.452 45.9236C168.452 42.8898 167.857 40.3021 166.668 38.1606C165.478 35.9596 163.872 34.294 161.849 33.1637C159.827 31.974 157.655 31.3791 155.335 31.3791C153.015 31.3791 150.874 31.9443 148.911 33.0745C146.948 34.2048 145.342 35.8704 144.092 38.0714C142.903 40.2129 142.308 42.7708 142.308 45.7451C142.308 48.7195 142.903 51.3369 144.092 53.5974C145.342 55.7984 146.948 57.4937 148.911 58.6835C150.933 59.8732 153.075 60.4681 155.335 60.4681C157.655 60.4681 159.827 59.9029 161.849 58.7727C163.872 57.583 165.478 55.9173 166.668 53.7758C167.857 51.5748 168.452 48.9574 168.452 45.9236Z" fill="url(#paint1_linear_208_10335)"/>
<path d="M200.016 15.3178C197.815 15.3178 195.971 14.6337 194.484 13.2655C193.056 11.8378 192.342 10.083 192.342 8.00094C192.342 5.91891 193.056 4.1938 194.484 2.82561C195.971 1.39793 197.815 0.684092 200.016 0.684092C202.217 0.684092 204.031 1.39793 205.459 2.82561C206.946 4.1938 207.69 5.91891 207.69 8.00094C207.69 10.083 206.946 11.8378 205.459 13.2655C204.031 14.6337 202.217 15.3178 200.016 15.3178ZM206.173 21.2069V70.6403H193.68V21.2069H206.173Z" fill="url(#paint2_linear_208_10335)"/>
<path d="M231.453 28.8807C233.059 26.2633 235.141 24.211 237.699 22.7239C240.317 21.2367 243.291 20.4931 246.622 20.4931V33.6099H243.321C239.395 33.6099 236.42 34.5319 234.398 36.376C232.435 38.2201 231.453 41.4324 231.453 46.0128V70.6403H218.961V21.2069H231.453V28.8807Z" fill="url(#paint3_linear_208_10335)"/>
<path d="M0 0.393172V16.5132H23.5903C23.5903 16.5132 31.8469 15.7269 36.565 16.9064C41.2831 18.0859 41.2831 22.0176 41.2831 22.0176C41.2831 22.0176 41.7201 25.728 40.4967 27.522C39.2194 29.395 35.3855 30.2742 35.3855 30.2742H0.182625V46.3943H12.5815L18.0859 47.5738L22.0176 49.5397L25.5562 52.2919L29.8811 57.7963L33.4196 61.3348L40.1035 66.8392L43.6421 68.4119L49.1465 70.3778L55.0441 70.7709H57.7963V54.6509H53.4714L47.967 52.2919L44.4284 49.1465L42.4626 47.1806L41.2831 45.2148H41.6762L44.8216 44.0353L47.967 42.0694L50.326 40.1035L52.685 37.7445L55.0441 34.5991L55.8304 32.2401L57.0099 29.0947L57.7963 25.163V22.0176L57.4031 18.0859L55.0441 11.7952L52.2919 8.25661L50.326 6.29075L46.7875 3.53855L42.8557 1.57269L39.3172 0.786344L33.8128 0H11.0088L5.11124 0.393172H0Z" fill="url(#paint4_linear_208_10335)"/>
<defs>
<linearGradient id="paint0_linear_208_10335" x1="-12.9801" y1="-6.47727" x2="264.392" y2="31.3843" gradientUnits="userSpaceOnUse">
<stop stop-color="#FEA901"/>
<stop offset="0.37" stop-color="#FD6E34"/>
<stop offset="0.65" stop-color="#FE336A"/>
<stop offset="1" stop-color="#FD401A"/>
</linearGradient>
<linearGradient id="paint1_linear_208_10335" x1="-12.9801" y1="-6.47727" x2="264.392" y2="31.3843" gradientUnits="userSpaceOnUse">
<stop stop-color="#FEA901"/>
<stop offset="0.37" stop-color="#FD6E34"/>
<stop offset="0.65" stop-color="#FE336A"/>
<stop offset="1" stop-color="#FD401A"/>
</linearGradient>
<linearGradient id="paint2_linear_208_10335" x1="-12.9801" y1="-6.47727" x2="264.392" y2="31.3843" gradientUnits="userSpaceOnUse">
<stop stop-color="#FEA901"/>
<stop offset="0.37" stop-color="#FD6E34"/>
<stop offset="0.65" stop-color="#FE336A"/>
<stop offset="1" stop-color="#FD401A"/>
</linearGradient>
<linearGradient id="paint3_linear_208_10335" x1="-12.9801" y1="-6.47727" x2="264.392" y2="31.3843" gradientUnits="userSpaceOnUse">
<stop stop-color="#FEA901"/>
<stop offset="0.37" stop-color="#FD6E34"/>
<stop offset="0.65" stop-color="#FE336A"/>
<stop offset="1" stop-color="#FD401A"/>
</linearGradient>
<linearGradient id="paint4_linear_208_10335" x1="-12.9801" y1="-6.47727" x2="264.392" y2="31.3843" gradientUnits="userSpaceOnUse">
<stop stop-color="#FEA901"/>
<stop offset="0.37" stop-color="#FD6E34"/>
<stop offset="0.65" stop-color="#FE336A"/>
<stop offset="1" stop-color="#FD401A"/>
</linearGradient>
</defs>
</svg>
