<svg width="98" height="97" viewBox="0 0 98 97" fill="none" xmlns="http://www.w3.org/2000/svg">
<rect x="0.622559" width="97" height="97" rx="16.1667" fill="url(#paint0_linear_208_10332)"/>
<path d="M22.7842 16.6075V31.2995H44.2847C44.2847 31.2995 51.8099 30.5829 56.1101 31.6579C60.4102 32.7329 60.4102 36.3163 60.4102 36.3163C60.4102 36.3163 60.8085 39.6981 59.6935 41.3331C58.5294 43.0402 55.035 43.8415 55.035 43.8415H48.5849H38.5513H22.9506V58.5336H27.801H34.2511L39.2679 59.6086L42.8514 61.4003L46.0765 63.9087L50.0182 68.9255L53.2433 72.1506L59.3351 77.1674L62.5602 78.6008L67.577 80.3925L72.9522 80.7508H75.4606V66.0588H71.5188L66.502 63.9087L63.2769 61.042L61.4852 59.2503L60.4102 57.4586H60.7685L63.6353 56.3835L66.502 54.5918L68.6521 52.8001L70.8021 50.6501L72.9522 47.7833L73.6689 45.6333L74.7439 42.7665L75.4606 39.1831V36.3163L75.1022 32.7329L74.0272 29.8662L72.9522 26.9994L70.4438 23.7743L68.6521 21.9826L65.427 19.4742L61.8435 17.6825L58.6185 16.9658L53.6017 16.2491H48.2265H40.343H32.8178L27.4426 16.6075H22.7842Z" fill="white"/>
<defs>
<linearGradient id="paint0_linear_208_10332" x1="-4.4827" y1="-6.61363" x2="106.338" y2="-0.786605" gradientUnits="userSpaceOnUse">
<stop stop-color="#FEA901"/>
<stop offset="0.37" stop-color="#FD6E34"/>
<stop offset="0.65" stop-color="#FE336A"/>
<stop offset="1" stop-color="#FD401A"/>
</linearGradient>
</defs>
</svg>
